<svg width="16" height="15" viewBox="0 0 16 15" fill="none" xmlns="http://www.w3.org/2000/svg">
<path d="M 14.008 13.499 C 14.023 13.808 14.304 14.053 14.617 14.053 C 14.854 14.061 15.202 13.903 15.2 13.445 C 15.195 12.38 14.948 11.329 14.597 10.317 C 14.593 10.296 14.587 10.278 14.582 10.264 C 13.804 8.051 12.372 6.134 10.437 4.714 C 9.925 4.339 9.377 4 8.806 3.706 C 8.228 3.409 7.621 3.156 6.998 2.953 C 6.844 2.904 6.686 2.854 6.499 2.802 L 6.497 2.802 C 6.181 2.729 5.867 2.908 5.782 3.21 C 5.697 3.513 5.886 3.825 6.194 3.911 L 6.194 3.912 C 6.336 3.95 6.476 3.994 6.622 4.041 C 7.178 4.224 7.727 4.452 8.251 4.72 C 8.762 4.984 9.257 5.289 9.717 5.628 C 11.448 6.899 12.733 8.611 13.437 10.586 C 13.441 10.604 13.447 10.621 13.451 10.635 L 13.452 10.636 C 13.774 11.561 13.963 12.525 14.008 13.499 Z" fill="#00443D" stroke="#00443D" stroke-width="0.09"/>
<path d="M8.96233 11.6213L8.96274 11.6215C9.49897 11.7994 10.0438 11.8911 10.5863 11.8911C13.3205 11.8911 15.5458 9.75482 15.5458 7.12259C15.5458 6.75515 15.4966 6.38025 15.3958 5.98763L15.3958 5.98762L15.3955 5.98652C14.8623 4.10918 13.421 2.57499 11.5585 1.8926C8.10874 0.460368 4.02014 0.679203 0.754555 2.47902C0.55887 2.58573 0.444063 2.78865 0.455823 3.00623L0.455825 3.00627C0.467608 3.22144 0.60581 3.41249 0.809764 3.49935C2.84544 4.3718 4.42941 6.0313 5.15683 8.0746L5.15679 8.07461L5.15753 8.07643C5.82958 9.73179 7.21419 11.023 8.96233 11.6213ZM11.1118 2.95453L11.1135 2.95522C12.6448 3.51615 13.8168 4.76378 14.2449 6.27518C14.3196 6.57029 14.3567 6.84667 14.3567 7.12259C14.3567 9.11784 12.6666 10.7448 10.5863 10.7448C10.1783 10.7448 9.76466 10.6756 9.35866 10.5396C7.93961 10.0558 6.81326 9.00625 6.27819 7.68014C5.57646 5.71921 4.17248 4.05587 2.34795 2.98498C5.09775 1.81647 8.30142 1.78703 11.1118 2.95453Z" fill="#00443D" stroke="#00443D" stroke-width="0.09"/>
</svg>